<svg width="1200" height="630" viewBox="0 0 1200 630" fill="none" xmlns="http://www.w3.org/2000/svg">
    <!-- Background: Deep Void -->
    <rect width="1200" height="630" fill="#050505"/>
    
    <!-- Background Gradients (Aurora Effect) -->
    <g opacity="0.4">
        <circle cx="200" cy="100" r="400" fill="url(#purpleGlow)" />
        <circle cx="1000" cy="500" r="400" fill="url(#cyanGlow)" />
        <circle cx="600" cy="315" r="200" fill="url(#goldGlow)" />
    </g>

    <!-- Grid Texture (Subtle) -->
    <mask id="gridMask">
        <rect width="1200" height="630" fill="url(#gridPattern)" />
    </mask>
    <rect width="1200" height="630" fill="#ffffff" fill-opacity="0.03" mask="url(#gridMask)" />

    <!-- Central Content Group -->
    <g transform="translate(600, 315)">
        
        <!-- Large Logo Scale -->
        <g transform="translate(-100, -140) scale(2)">
             <!-- Aura -->
             <circle cx="60" cy="65" r="50" fill="url(#logoAura)" opacity="0.6" />
             
             <!-- PIXEL ART GROUP -->
             <g shape-rendering="crispEdges" transform="translate(0, 5)">
                  <!-- Stem -->
                  <path d="M50 70 H70 V100 H50 Z" fill="#FFF9E5" />
                  <path d="M45 100 H75 V105 H45 Z" fill="#FFF9E5" />
                  <path d="M70 70 H75 V100 H70 Z" fill="#E5E7EB" opacity="0.3" />

                  <!-- Cap -->
                  <path d="M25 70 H95 V50 H85 V40 H35 V50 H25 Z" fill="#ef4444" />
                  <path d="M25 70 H95 V75 H25 Z" fill="#991b1b" />

                  <!-- Spots -->
                  <rect x="35" y="55" width="5" height="5" fill="white" />
                  <rect x="75" y="60" width="5" height="5" fill="white" />
                  <rect x="55" y="45" width="5" height="5" fill="white" />
                  <rect x="85" y="50" width="5" height="5" fill="white" />
                  <rect x="30" y="65" width="5" height="5" fill="white" />

                  <!-- FROG -->
                  <path d="M45 40 H75 V25 H45 Z" fill="#84cc16" />
                  <rect x="40" y="35" width="5" height="5" fill="#65a30d" />
                  <rect x="75" y="35" width="5" height="5" fill="#65a30d" />
                  <rect x="45" y="20" width="10" height="5" fill="#84cc16" />
                  <rect x="65" y="20" width="10" height="5" fill="#84cc16" />
                  
                  <!-- Eyes -->
                  <rect x="45" y="20" width="5" height="5" fill="white" />
                  <rect x="47" y="22" width="2" height="2" fill="black" />
                  <rect x="70" y="20" width="5" height="5" fill="white" />
                  <rect x="72" y="22" width="2" height="2" fill="black" />
                  
                  <!-- Belly -->
                  <rect x="55" y="30" width="10" height="10" fill="#bef264" />
              </g>
        </g>

        <!-- Typography -->
        <g transform="translate(0, 100)" text-anchor="middle">
            <text x="0" y="0" font-family="system-ui, -apple-system, sans-serif" font-weight="800" font-size="90" fill="white" letter-spacing="-2">
                Entheo<tspan fill="url(#textGradient)">Breath</tspan>
            </text>
            <text x="0" y="60" font-family="system-ui, -apple-system, sans-serif" font-weight="300" font-size="32" fill="#9ca3af" letter-spacing="8" text-transform="uppercase">
                Дыхание и Сознание
            </text>
        </g>

    </g>

    <!-- Definitions -->
    <defs>
        <radialGradient id="logoAura" cx="0" cy="0" r="1" gradientUnits="userSpaceOnUse" gradientTransform="translate(60 60) rotate(90) scale(60)">
            <stop stop-color="#F59E0B" stop-opacity="0.4" /> 
            <stop offset="0.8" stop-color="#7C3AED" stop-opacity="0" />
        </radialGradient>
        <radialGradient id="purpleGlow" cx="0" cy="0" r="1" gradientUnits="userSpaceOnUse" gradientTransform="rotate(90) scale(400)">
            <stop stop-color="#7C3AED" stop-opacity="0.4" />
            <stop offset="1" stop-color="#7C3AED" stop-opacity="0" />
        </radialGradient>
        <radialGradient id="cyanGlow" cx="0" cy="0" r="1" gradientUnits="userSpaceOnUse" gradientTransform="rotate(90) scale(400)">
            <stop stop-color="#22d3ee" stop-opacity="0.3" />
            <stop offset="1" stop-color="#22d3ee" stop-opacity="0" />
        </radialGradient>
        <radialGradient id="goldGlow" cx="0" cy="0" r="1" gradientUnits="userSpaceOnUse" gradientTransform="rotate(90) scale(200)">
            <stop stop-color="#F59E0B" stop-opacity="0.2" />
            <stop offset="1" stop-color="#F59E0B" stop-opacity="0" />
        </radialGradient>
        <linearGradient id="textGradient" x1="0" y1="0" x2="100%" y2="0" gradientUnits="userSpaceOnUse">
             <stop offset="0" stop-color="#22d3ee" />
             <stop offset="0.5" stop-color="#7C3AED" />
             <stop offset="1" stop-color="#F59E0B" />
        </linearGradient>
        <pattern id="gridPattern" width="40" height="40" patternUnits="userSpaceOnUse">
            <path d="M 40 0 L 0 0 0 40" fill="none" stroke="white" stroke-width="1" />
        </pattern>
    </defs>
</svg>