<svg width="128" height="128" viewBox="0 0 120 120" fill="none" xmlns="http://www.w3.org/2000/svg">
  <defs>
    <radialGradient id="goldAura" cx="0" cy="0" r="1" gradientUnits="userSpaceOnUse" gradientTransform="translate(60 60) rotate(90) scale(60)">
      <stop stop-color="#F59E0B" stop-opacity="0.4" /> 
      <stop offset="0.8" stop-color="#7C3AED" stop-opacity="0" />
    </radialGradient>
  </defs>

  <!-- Aura -->
  <circle cx="60" cy="65" r="50" fill="url(#goldAura)" />

  <!-- PIXEL ART GROUP -->
  <g shape-rendering="crispEdges" transform="translate(0, 5)">
      <!-- Stem -->
      <path d="M50 70 H70 V100 H50 Z" fill="#FFF9E5" />
      <path d="M45 100 H75 V105 H45 Z" fill="#FFF9E5" />
      <path d="M70 70 H75 V100 H70 Z" fill="#E5E7EB" opacity="0.3" />

      <!-- Cap -->
      <path d="M25 70 H95 V50 H85 V40 H35 V50 H25 Z" fill="#ef4444" />
      <path d="M25 70 H95 V75 H25 Z" fill="#991b1b" />

      <!-- Spots -->
      <rect x="35" y="55" width="5" height="5" fill="white" />
      <rect x="75" y="60" width="5" height="5" fill="white" />
      <rect x="55" y="45" width="5" height="5" fill="white" />
      <rect x="85" y="50" width="5" height="5" fill="white" />
      <rect x="30" y="65" width="5" height="5" fill="white" />

      <!-- FROG -->
      <path d="M45 40 H75 V25 H45 Z" fill="#84cc16" />
      <rect x="40" y="35" width="5" height="5" fill="#65a30d" />
      <rect x="75" y="35" width="5" height="5" fill="#65a30d" />
      <rect x="45" y="20" width="10" height="5" fill="#84cc16" />
      <rect x="65" y="20" width="10" height="5" fill="#84cc16" />
      
      <!-- Eyes -->
      <rect x="45" y="20" width="5" height="5" fill="white" />
      <rect x="47" y="22" width="2" height="2" fill="black" />
      <rect x="70" y="20" width="5" height="5" fill="white" />
      <rect x="72" y="22" width="2" height="2" fill="black" />
      
      <!-- Belly -->
      <rect x="55" y="30" width="10" height="10" fill="#bef264" />
  </g>
</svg>